<?xml version="1.0" encoding="UTF-8" standalone="no"?>
<!DOCTYPE svg PUBLIC "-//W3C//DTD SVG 1.1//EN" "http://www.w3.org/Graphics/SVG/1.1/DTD/svg11.dtd">
<!-- Created with Vectornator (http://vectornator.io/) -->
<svg height="100%" stroke-miterlimit="10" style="fill-rule:nonzero;clip-rule:evenodd;stroke-linecap:round;stroke-linejoin:round;" version="1.1" viewBox="0 0 74.4 74.4" width="100%" xml:space="preserve" xmlns="http://www.w3.org/2000/svg" xmlns:vectornator="http://vectornator.io" xmlns:xlink="http://www.w3.org/1999/xlink">
<defs/>
<g id="Untitled" vectornator:layerName="Untitled">
<path d="M7.12814 42.9143C7.12814 45.6066 9.25484 47.7897 11.8463 47.7897L62.4874 47.7897C65.0776 47.7897 67.2055 45.6066 67.2055 42.9143L67.2055 7.05658C67.2056 4.36612 65.0776 2.18059 62.4874 2.18119L11.8463 2.18119C9.25484 2.18118 7.12814 4.36551 7.12814 7.05658L7.12814 42.9143ZM9.64447 42.9143C9.64447 42.9143 9.64447 7.05658 9.64447 7.05658C9.64447 5.75453 10.642 4.69752 11.8463 4.69752L62.4874 4.69752C63.711 4.69752 64.6892 5.73218 64.6892 7.05658L64.6892 42.9143C64.6892 44.1958 63.6693 45.2734 62.4874 45.2734L11.8463 45.2734C10.6227 45.2734 9.64447 44.2399 9.64447 42.9143Z" fill="#000000" fill-rule="nonzero" opacity="1" stroke="none"/>
<path d="M37.1275 10.4772C29.1227 10.4772 22.6586 17.0199 22.6586 25.0248C22.6586 33.0296 29.1227 39.4937 37.1275 39.4937C45.1324 39.4937 51.6751 33.0296 51.6751 25.0248C51.6751 17.0199 45.1324 10.4772 37.1275 10.4772ZM32.3308 17.0826L39.0934 21.0144L45.8561 24.9461L39.0934 28.7993L32.3308 32.731L32.3308 24.9461L32.3308 17.0826Z" fill="#000000" fill-rule="nonzero" opacity="1" stroke="none"/>
<path d="M36.9481 46.6562C32.1981 46.6694 27.4481 46.7375 27.4481 46.9375C27.4481 48.0375 28.3481 49.9062 29.4481 49.9062L30.1981 49.9062L15.6668 64.4375L15.6043 64.5C14.8972 65.2071 14.9597 66.4179 15.6668 67.125L16.5731 68.0312C17.2802 68.7384 18.5765 68.7466 19.3543 67.9688L34.5418 52.9062L34.5418 71.5L34.5418 71.5938C34.5418 72.5938 35.4481 73.4062 36.4481 73.4062L37.7293 73.4062C38.7293 73.4063 39.6356 72.5062 39.6356 71.4062L39.7293 52.8438L54.9793 67.9688C55.7572 68.7466 57.0535 68.7384 57.7606 68.0312L58.6668 67.125C59.374 66.4179 59.4365 65.2071 58.7293 64.5L58.6668 64.4375L44.1356 49.9062L44.9481 49.9062C45.3481 49.9062 45.7418 49.7 46.0418 49.5C46.9418 48.8 47.1481 47.5875 46.4481 46.6875C46.4481 46.6875 41.6981 46.6431 36.9481 46.6562Z" fill="#000000" fill-rule="nonzero" opacity="1" stroke="none"/>
</g>
</svg>
