<?xml version="1.0" encoding="UTF-8" standalone="no"?>
<!DOCTYPE svg PUBLIC "-//W3C//DTD SVG 1.1//EN" "http://www.w3.org/Graphics/SVG/1.1/DTD/svg11.dtd">
<!-- Created with Vectornator (http://vectornator.io/) -->
<svg height="100%" stroke-miterlimit="10" style="fill-rule:nonzero;clip-rule:evenodd;stroke-linecap:round;stroke-linejoin:round;" version="1.1" viewBox="0 0 74.4 74.4" width="100%" xml:space="preserve" xmlns="http://www.w3.org/2000/svg" xmlns:vectornator="http://vectornator.io" xmlns:xlink="http://www.w3.org/1999/xlink">
<defs/>
<clipPath id="ArtboardFrame">
<rect height="74.4" width="74.4" x="0" y="0"/>
</clipPath>
<g clip-path="url(#ArtboardFrame)" id="Untitled" vectornator:layerName="Untitled">
<path d="M38.4688 36.5312C37.9937 36.5813 37.5375 36.7875 37.1875 37.1875L29.3125 47.6875C29.1125 48.0875 28.9062 48.5062 28.9062 48.9062C28.9063 50.0063 29.8062 50.9062 30.9062 50.9062L36 50.9062L36 72.5L36 72.5938C36 73.5938 36.9062 74.4062 37.9062 74.4062L39.1875 74.4062C40.1875 74.4063 41.0938 73.5063 41.0938 72.4062L41.1875 50.9062L46.4062 50.9062C46.8062 50.9062 47.2 50.7 47.5 50.5C48.4 49.8 48.6062 48.5875 47.9062 47.6875C47.9062 47.6875 40.0063 37.0063 39.9062 36.9062C39.4563 36.6062 38.9438 36.4812 38.4688 36.5312Z" fill="#000000" fill-rule="nonzero" opacity="1" stroke="none"/>
<path d="M7.12814 40.9143C7.12814 43.6066 9.25484 45.7897 11.8463 45.7897L62.4874 45.7897C65.0776 45.7897 67.2055 43.6066 67.2055 40.9143L67.2055 5.05658C67.2056 2.36612 65.0776 0.180587 62.4874 0.181189L11.8463 0.181189C9.25484 0.181183 7.12814 2.36551 7.12814 5.05658L7.12814 40.9143ZM9.64447 40.9143C9.64447 40.9143 9.64447 5.05658 9.64447 5.05658C9.64447 3.75453 10.642 2.69752 11.8463 2.69752L62.4874 2.69752C63.711 2.69752 64.6892 3.73218 64.6892 5.05658L64.6892 40.9143C64.6892 42.1958 63.6693 43.2734 62.4874 43.2734L11.8463 43.2734C10.6227 43.2734 9.64447 42.2399 9.64447 40.9143Z" fill="#000000" fill-rule="nonzero" opacity="1" stroke="none"/>
<path d="M37.4814 5.21385C29.4765 5.21385 23.0125 11.7565 23.0125 19.7614C23.0125 27.7662 29.4765 34.2303 37.4814 34.2303C45.4862 34.2303 52.0289 27.7662 52.0289 19.7614C52.0289 11.7565 45.4862 5.21385 37.4814 5.21385ZM32.6846 11.8192L39.4473 15.751L46.2099 19.6828L39.4473 23.5359L32.6846 27.4677L32.6846 19.6828L32.6846 11.8192Z" fill="#000000" fill-rule="nonzero" opacity="1" stroke="none"/>
</g>
</svg>
